# .Obj generated by Kodon + v0.91d
# ------------------ 
 
v 0.0000000 0.3161358 -0.1211784
v 0.2431642 0.5491333 -0.2044202
v 0.0000000 0.9664683 -0.4374534
v 0.2439563 0.8243065 -0.3317750
v 0.0000000 0.6487119 -0.5257390
v 0.1360878 0.6278727 -0.4419625
v 0.0000000 1.0343070 -0.8460363
v 0.1054334 0.9143282 -0.6353133
v 0.0000000 0.9368585 -0.0508712
v 0.2619069 0.7582138 -0.1110913
v 0.3018901 0.4605130 0.0503409
v 0.0000000 0.4412663 0.1788858
v -0.2451705 0.8267213 -0.3334360
v -0.1054449 0.9143482 -0.6353129
v -0.1938531 0.8883352 -0.1313878
v -0.2299085 0.9193618 -0.2932861
v -0.1641807 0.3346584 0.2396189
v -0.1488019 0.3594638 0.2806139
v 0.0000000 0.3307570 -0.6283481
v -0.2673169 0.7673058 -0.1102476
v 0.1282191 0.3778656 -0.5697832
v -0.1722936 0.6469332 0.1457023
v 0.1378331 0.2495972 -0.3935350
v 0.0000000 0.2280123 -0.4124831
v 0.0000000 0.1448450 -0.5172887
v 0.0917945 0.1650607 -0.5095836
v -0.0873403 0.2452338 -0.5975218
v 0.0873403 0.2452338 -0.5975218
v -0.0917945 0.1650607 -0.5095836
v 0.0000000 0.2300300 -0.6776950
v 0.0000000 0.1015634 -0.6775844
v -0.1282191 0.3778656 -0.5697832
v 0.0564904 0.0921433 -0.6586025
v -0.1378331 0.2495972 -0.3935350
v 0.0512232 0.0746567 -0.5584311
v 0.0000000 0.0600499 -0.5508337
v 0.0000000 0.8381304 -0.6870587
v -0.3018901 0.4605130 0.0503409
v 0.1008695 0.8944268 -0.6464546
v -0.2619069 0.7582138 -0.1110913
v 0.1075142 0.6596736 -0.4891042
v 0.0000000 0.6958408 -0.5829700
v 0.0000000 0.7513041 0.1513922
v 0.1686385 0.6356690 0.1444730
v -0.0684381 1.0118530 -0.2728858
v 0.1872535 0.4239199 0.2722886
v -0.0699736 1.0113110 -0.1499001
v 0.0000000 0.6894571 0.1813422
v 0.1641807 0.3346584 0.2396189
v -0.0512232 0.0746567 -0.5584311
v 0.0000000 0.4179150 0.2430211
v 0.0000000 0.6406277 0.2149736
v 0.1488019 0.3594638 0.2806139
v -0.0564904 0.0921433 -0.6586025
v 0.0000000 1.0019910 -0.4070722
v 0.2299085 0.9193618 -0.2932861
v -0.2439563 0.8243065 -0.3317750
v 0.1938531 0.8883352 -0.1313878
v -0.1054334 0.9143282 -0.6353133
v 0.0000000 0.9685107 -0.0565468
v -0.1360878 0.6278727 -0.4419625
v 0.2673169 0.7673058 -0.1102476
v 0.0000000 0.9636686 -0.0274392
v 0.0000000 0.7918987 0.1851731
v -0.2431642 0.5491333 -0.2044202
v 0.1722936 0.6469332 0.1457023
v 0.0000000 1.0129860 -0.1230730
v -0.1075142 0.6596736 -0.4891042
v 0.0699736 1.0113110 -0.1499001
v -0.1008695 0.8944268 -0.6464546
v 0.0684381 1.0118530 -0.2728858
v 0.0000000 0.9959913 -0.3728190
v 0.0000000 0.9582691 -0.4359294
v -0.1686385 0.6356690 0.1444730
v 0.2451705 0.8267213 -0.3334360
v -0.1872535 0.4239199 0.2722886
v 0.1054449 0.9143482 -0.6353129
v 0.0000000 1.0341740 -0.8460121
vn 0.0000000 0.5411080 0.8409531
vn 0.3560289 0.5056519 0.7858496
vn 0.0000000 0.5411080 0.8409531
vn 0.0000000 -0.5451283 -0.8383526
vn 0.5104727 -0.4687525 -0.7208943
vn 0.0000000 -0.5451283 -0.8383526
vn -0.3014593 -0.1742470 -0.9374222
vn 0.0000000 -0.1827486 -0.9831597
vn 0.0000000 -0.1827486 -0.9831597
vn 0.8614600 -0.2175403 -0.4588713
vn 0.0000000 -0.9856787 -0.1686342
vn 0.0651476 -0.9835848 -0.1682760
vn 0.0000000 -0.9856787 -0.1686342
vn 0.0000000 0.9969639 -0.0778649
vn 0.6333929 0.7714809 -0.0602542
vn 0.0000000 0.9969639 -0.0778649
vn 0.0000000 0.9999836 0.0057257
vn -0.1049384 0.9944624 0.0056941
vn 0.0000000 0.9999836 0.0057257
vn 0.9684597 -0.0561254 -0.2427667
vn 0.4995695 -0.7995392 0.3334177
vn 0.0000000 -0.9229636 0.3848872
vn 0.0000000 -0.9229636 0.3848872
vn -0.6164567 -0.6325257 -0.4689269
vn 0.0000000 -0.5632139 -0.8263112
vn -0.7109084 -0.3960996 -0.5811319
vn 0.0000000 -0.5632139 -0.8263112
vn -0.4269085 0.7517672 0.5025886
vn 0.0000000 0.8313297 0.5557795
vn 0.0000000 0.8313297 0.5557795
vn -0.6829688 0.7123268 0.1616912
vn 0.0000000 0.9238927 -0.3826516
vn -0.4333676 0.8326281 -0.3448523
vn 0.0000000 0.9238927 -0.3826516
vn 0.3587563 -0.5970679 0.7174983
vn 0.0000000 -0.6396485 0.7686675
vn 0.0000000 -0.6396485 0.7686675
vn -0.9278396 -0.3216763 0.1887802
vn 0.0000001 0.1756214 -0.9844578
vn 0.1402163 0.1738863 -0.9747323
vn 0.0000001 0.1756214 -0.9844578
vn -0.3648956 0.1643238 0.9164327
vn 0.0000000 0.1764933 0.9843018
vn 0.0000000 0.1764933 0.9843018
vn -0.8638230 0.4770462 0.1619777
vn 0.0000000 -0.6701289 0.7422447
vn 0.4971890 -0.5814322 0.6440029
vn 0.0000000 -0.6701289 0.7422447
vn 0.9693338 0.0869979 -0.2298331
vn 0.4341904 0.2766595 -0.8572854
vn 0.0000000 0.3071192 -0.9516711
vn 0.0000000 0.3071192 -0.9516711
vn 0.0000000 -0.8238814 0.5667622
vn 0.0838947 -0.8209770 0.5647641
vn 0.0000000 -0.8238814 0.5667622
vn 0.9408183 -0.2399076 -0.2393853
vn 0.4109765 0.4010769 -0.8186792
vn 0.0000000 0.4399482 -0.8980232
vn 0.0000000 0.4399482 -0.8980232
vn 0.0000000 0.4536482 -0.8911808
vn -0.5317882 0.3841844 -0.7547209
vn 0.0000000 0.4536482 -0.8911808
vn -0.8545418 -0.3212172 0.4081394
vn 0.0000000 0.2023406 0.9793152
vn 0.1261301 0.2007246 0.9714941
vn 0.0000000 0.2023406 0.9793152
vn 0.2203557 -0.9165580 -0.3337136
vn 0.0000000 -0.9396551 -0.3421231
vn 0.0000000 -0.9396551 -0.3421231
vn 0.0517428 0.1247815 0.9908341
vn 0.0000000 0.1249489 0.9921632
vn 0.0000000 0.1249489 0.9921632
vn -0.8027266 0.3615804 0.4742254
vn 0.0000000 -0.5184076 0.8551337
vn 0.1246015 -0.5143676 0.8484694
vn 0.0000000 -0.5184076 0.8551337
vn 0.9828278 -0.1654726 -0.0816600
vn 0.5676026 -0.0007086 -0.8233023
vn 0.0000000 -0.0008607 -0.9999996
vn 0.0000000 -0.0008607 -0.9999996
vn 0.0000000 0.7634787 0.6458330
vn -0.6113007 0.6042158 0.5111112
vn 0.0000000 0.7634787 0.6458330
vn -0.6010885 -0.5031653 -0.6209004
vn 0.0000000 -0.6296000 -0.7769194
vn 0.0000000 -0.6296000 -0.7769194
vn -0.9675647 -0.0896705 -0.2361733
vn 0.0000000 -0.7232865 -0.6905481
vn 0.3170613 -0.6859686 -0.6549193
vn 0.0000000 -0.7232865 -0.6905481
vn 0.9675647 -0.0896705 -0.2361733
vn 0.6010885 -0.5031653 -0.6209004
vn 0.6113007 0.6042158 0.5111112
vn 0.8027266 0.3615804 0.4742254
vn -0.0517428 0.1247815 0.9908341
vn -0.3170613 -0.6859686 -0.6549193
vn -0.5676026 -0.0007086 -0.8233023
vn -0.9828278 -0.1654726 -0.0816600
vn -0.2203557 -0.9165580 -0.3337136
vn -0.1261301 0.2007246 0.9714941
vn 0.8545418 -0.3212172 0.4081394
vn -0.1246016 -0.5143676 0.8484694
vn -0.4109765 0.4010769 -0.8186792
vn -0.9408183 -0.2399076 -0.2393853
vn 0.5317882 0.3841844 -0.7547209
vn 0.8638230 0.4770462 0.1619777
vn 0.3648956 0.1643238 0.9164327
vn -0.0838947 -0.8209770 0.5647641
vn -0.4341904 0.2766595 -0.8572854
vn -0.9693338 0.0869979 -0.2298331
vn -0.4971890 -0.5814322 0.6440029
vn -0.4995695 -0.7995392 0.3334177
vn -0.9684597 -0.0561254 -0.2427667
vn -0.1402160 0.1738865 -0.9747322
vn 0.9278396 -0.3216763 0.1887802
vn -0.3587563 -0.5970679 0.7174983
vn 0.1049384 0.9944624 0.0056941
vn -0.6333929 0.7714809 -0.0602542
vn -0.0651476 -0.9835848 -0.1682760
vn 0.4333676 0.8326281 -0.3448523
vn 0.6829688 0.7123268 0.1616913
vn 0.4269085 0.7517672 0.5025886
vn -0.8614600 -0.2175403 -0.4588713
vn -0.5104727 -0.4687525 -0.7208943
vn -0.3560289 0.5056519 0.7858496
vn 0.7109084 -0.3960996 -0.5811319
vn 0.6164567 -0.6325257 -0.4689269
vn 0.3014593 -0.1742470 -0.9374222
o Cube
g Cube
f 48//3 46//2 44//2 43//1
f 37//6 39//5 41//5 42//4
f 57//7 3//9 73//8 13//7
f 2//10 6//10 8//10 4//10
f 31//13 33//12 35//12 36//11
f 3//16 4//15 8//15 7//14
f 67//19 69//18 71//18 72//17
f 10//20 11//20 2//20 4//20
f 11//21 12//23 1//22 2//21
f 59//24 57//24 13//24 14//24
f 7//27 59//26 14//26 78//25
f 15//28 60//30 67//29 47//28
f 16//31 15//31 47//31 45//31
f 55//34 16//33 45//33 72//32
f 74//35 43//37 64//36 22//35
f 40//38 74//38 22//38 20//38
f 9//41 40//40 20//40 63//39
f 40//42 9//44 60//43 15//42
f 57//45 40//45 15//45 16//45
f 24//48 23//47 2//47 1//46
f 23//49 21//49 6//49 2//49
f 21//50 19//52 5//51 6//50
f 25//55 26//54 23//54 24//53
f 26//56 28//56 21//56 23//56
f 28//57 30//59 19//58 21//57
f 3//62 57//61 16//61 55//60
f 76//63 38//63 17//63 18//63
f 48//66 76//65 18//65 52//64
f 38//67 12//69 51//68 17//67
f 17//70 51//72 52//71 18//70
f 40//73 38//73 76//73 74//73
f 36//76 35//75 26//75 25//74
f 35//77 33//77 28//77 26//77
f 33//78 31//80 30//79 28//78
f 63//83 20//82 22//82 64//81
f 59//84 7//86 37//85 70//84
f 61//87 59//87 70//87 68//87
f 42//90 41//89 6//89 5//88
f 41//91 39//91 8//91 6//91
f 39//92 37//85 7//86 8//92
f 64//81 66//93 62//93 63//83
f 44//94 46//94 11//94 10//94
f 53//95 52//71 51//72 49//95
f 5//88 61//96 68//96 42//90
f 27//97 30//79 31//80 54//97
f 29//98 27//98 54//98 50//98
f 49//99 51//68 12//69 11//99
f 52//64 53//100 46//100 48//66
f 53//101 49//101 11//101 46//101
f 25//74 29//102 50//102 36//76
f 32//103 19//58 30//59 27//103
f 34//104 32//104 27//104 29//104
f 55//60 56//105 4//105 3//62
f 56//106 58//106 10//106 4//106
f 58//107 60//43 9//44 10//107
f 24//53 34//108 29//108 25//55
f 61//109 5//51 19//52 32//109
f 65//110 61//110 32//110 34//110
f 1//46 65//111 34//111 24//48
f 65//112 1//22 12//23 38//112
f 57//113 65//113 38//113 40//113
f 63//39 62//114 10//114 9//41
f 62//115 66//115 44//115 10//115
f 66//116 64//36 43//37 44//116
f 72//17 45//117 47//117 67//19
f 7//14 59//118 57//118 3//16
f 36//11 50//119 54//119 31//13
f 72//32 71//120 56//120 55//34
f 71//121 69//121 58//121 56//121
f 69//122 67//29 60//30 58//122
f 57//123 59//123 61//123 65//123
f 42//4 68//124 70//124 37//6
f 43//1 74//125 76//125 48//3
f 78//25 77//126 8//126 7//27
f 77//127 75//127 4//127 8//127
f 75//128 73//8 3//9 4//128
 
