# .Obj generated by Kodon + v0.91d
# ------------------ 
 
v -0.5000017 -3.8740100 -0.0000002
v 0.5000017 -3.8740100 -0.0000002
v -0.5000014 -3.1884830 -0.0000006
v 0.5000014 -3.1884830 -0.0000006
v -0.5000006 -3.8740100 -1.0000000
v 0.5000006 -3.8740100 -1.0000000
v -0.5000004 -3.1884830 -1.0000000
v 0.5000004 -3.1884830 -1.0000000
v -0.1264283 -2.6030390 -0.5759337
v 0.1264283 -2.6030390 -0.5759337
v 0.1264283 -2.6030390 -0.3567936
v -0.1264283 -2.6030390 -0.3567936
v -0.1264269 3.7064190 -0.5759332
v 0.1264269 3.7064190 -0.5759332
v 0.1264269 3.7064180 -0.3567930
v -0.1264269 3.7064180 -0.3567930
v -0.8368374 4.7050970 -1.0911710
v 0.8368374 4.7050970 -1.0911710
v 0.8368374 4.7050950 0.0661424
v -0.8368374 4.7050950 0.0661424
v -0.1210364 -4.3081080 -0.3797800
v 0.1210364 -4.3081080 -0.3797800
v 0.1210360 -4.3081080 -0.6393937
v -0.1210360 -4.3081080 -0.6393937
v -0.0438745 -4.5085150 -0.4596947
v 0.0438745 -4.5085150 -0.4596947
v 0.0438752 -4.4998450 -0.5711695
v -0.0438752 -4.4998450 -0.5711695
vn 0.0000000 0.0000005 1.0000000
vn 0.0000000 -0.0000003 -1.0000000
vn -1.0000000 0.0000003 -0.0000011
vn 1.0000000 0.0000003 -0.0000011
vn 0.0000000 -0.9969890 -0.0775442
vn 0.0000000 1.0000000 0.0000016
vn 0.0000000 0.5866227 -0.8098603
vn 0.8429972 0.5379180 -0.0000006
vn 0.0000000 0.5204107 0.8539162
vn -0.8429976 0.5379174 -0.0000006
vn 0.0000000 0.0000001 -1.0000000
vn 1.0000000 0.0000002 0.0000000
vn 0.0000000 -0.0000001 1.0000000
vn -1.0000000 0.0000002 0.0000000
vn 0.0000000 -0.4584959 -0.8886965
vn 0.8148628 -0.5796539 -0.0000010
vn 0.0000000 -0.3899672 0.9208288
vn -0.8148628 -0.5796539 -0.0000010
vn 0.0000000 -0.6584492 0.7526252
vn 0.7533254 -0.6576480 -0.0000009
vn 0.0000000 -0.6389892 -0.7692158
vn -0.7533256 -0.6576478 -0.0000009
vn 0.0000000 -0.3703991 0.9288727
vn 0.9265746 -0.3760084 -0.0087848
vn 0.0000000 -0.3352328 -0.9421353
vn -0.9342937 -0.3564068 -0.0083268
o Cube
g Cube
f 1//1 2//1 4//1 3//1
f 7//2 8//2 6//2 5//2
f 3//3 7//3 5//3 1//3
f 2//4 6//4 8//4 4//4
f 28//5 27//5 26//5 25//5
f 20//6 19//6 18//6 17//6
f 9//7 10//7 8//7 7//7
f 10//8 11//8 4//8 8//8
f 11//9 12//9 3//9 4//9
f 12//10 9//10 7//10 3//10
f 13//11 14//11 10//11 9//11
f 14//12 15//12 11//12 10//12
f 15//13 16//13 12//13 11//13
f 16//14 13//14 9//14 12//14
f 17//15 18//15 14//15 13//15
f 18//16 19//16 15//16 14//16
f 19//17 20//17 16//17 15//17
f 20//18 17//18 13//18 16//18
f 21//19 22//19 2//19 1//19
f 22//20 23//20 6//20 2//20
f 23//21 24//21 5//21 6//21
f 24//22 21//22 1//22 5//22
f 25//23 26//23 22//23 21//23
f 26//24 27//24 23//24 22//24
f 27//25 28//25 24//25 23//25
f 28//26 25//26 21//26 24//26
 
