# .Obj generated by Kodon + v0.91d
# ------------------ 
 
v 0.0000000 0.0000000 0.0000000
v 0.5000000 0.0000000 0.0000000
v 0.0000000 1.0000000 0.0000000
v 0.5000000 1.0000000 0.0000000
v 0.0000000 0.0000000 -1.0000000
v 0.5000000 0.0000000 -1.0000000
v 0.0000000 1.0000000 -1.0000000
v 0.5000000 1.0000000 -1.0000000
v 0.0000000 1.2444800 -1.0000000
v 0.5000000 1.2444800 -1.0000000
v 0.5000000 1.2444800 -0.0000001
v 0.0000000 1.2444800 -0.0000001
v 0.0000000 0.9999998 0.2346601
v 0.5000000 0.9999998 0.2346601
v 0.5000000 -0.0000002 0.2346601
v 0.0000000 -0.0000002 0.2346601
v -0.9757383 0.1986125 -0.0038760
v 0.7124724 0.0000000 0.0000000
v -0.9757379 0.3426715 -1.0038760
v 0.7124723 0.0000001 -1.0000000
v -0.9897590 0.7015768 -1.0331700
v 0.7124723 1.0000000 -1.0000000
v -0.9897594 0.7297911 -0.0248928
v 0.7124724 1.0000000 0.0000000
v 0.0000000 -0.2234281 0.0000002
v 0.5000000 -0.2234281 0.0000002
v 0.4999998 -0.2234280 -1.0106230
v 0.0000000 -0.2234281 -0.9999998
v 0.0000000 -0.0000004 -1.2071680
v 0.5000000 -0.0000004 -1.2071680
v 0.5000000 0.9999996 -1.2071680
v 0.0000000 0.9999995 -1.2071680
v 0.0000000 0.6177831 0.4384315
v 0.1142623 0.6177831 0.4384315
v 0.1116206 0.4297344 0.4384308
v 0.0000000 0.4297344 0.4384308
v 0.0000000 0.4038233 -1.4228480
v 0.1297371 0.4038232 -1.4228480
v 0.1297371 0.6532228 -1.4228480
v 0.0000000 0.6532228 -1.4228480
v 0.0000000 0.4038233 -3.4693640
v 0.1297371 0.4038233 -3.4693640
v 0.1297371 0.6532229 -3.4693640
v 0.0000000 0.6532228 -3.4693640
v -0.1297371 0.6532228 -1.4228480
v -0.1297371 0.4038232 -1.4228480
v -0.5000000 0.9999996 -1.2071680
v -0.5000000 -0.0000004 -1.2071680
v 0.9897594 0.7297911 -0.0248928
v 0.9897590 0.7015768 -1.0331700
v 0.9757379 0.3426715 -1.0038760
v 0.9757383 0.1986125 -0.0038760
v 1.3900430 0.6477702 -0.0903996
v 1.1379460 0.6492919 -1.0239910
v 1.1239250 0.3426710 -1.0085990
v 1.3726290 0.2992356 -0.0092012
v -0.1116206 0.4297344 0.4384308
v -0.1142623 0.6177831 0.4384315
v -0.1297371 0.6532229 -3.4693640
v -0.1297371 0.4038233 -3.4693640
v -1.3726290 0.2992356 -0.0092012
v -1.1239250 0.3426710 -1.0085990
v -1.1379460 0.6492919 -1.0239910
v -1.3900430 0.6477702 -0.0903996
v -0.4999998 -0.2234280 -1.0106230
v -0.5000000 -0.2234281 0.0000002
v -0.5000000 1.2444800 -0.0000001
v -0.5000000 1.2444800 -1.0000000
v -0.5000000 1.0000000 -1.0000000
v -0.5000000 1.0000000 0.0000000
v -0.5000000 0.9999998 0.2346601
v -0.5000000 -0.0000002 0.2346601
v -0.5000000 0.0000000 0.0000000
v -0.7124724 1.0000000 0.0000000
v -0.7124723 1.0000000 -1.0000000
v -0.7124723 0.0000001 -1.0000000
v -0.5000000 0.0000000 -1.0000000
v -0.7124724 0.0000000 0.0000000
v 0.0000000 -0.4426146 -0.3386108
v 0.0788740 -0.4426150 -0.3714103
v -0.0788740 -0.4426150 -0.3714103
v 0.0788751 -0.4586715 -0.6869409
v -0.0788751 -0.4586715 -0.6869409
v 0.0000000 -0.4586712 -0.6411644
v -0.5000101 -0.4485597 -1.0106220
v 0.5000101 -0.4485597 -1.0106220
v -0.5000104 -0.4485599 0.0000003
v 0.5000104 -0.4485599 0.0000003
v -0.0681648 -0.6677468 0.4597695
v 0.0681648 -0.6677468 0.4597695
v -0.0788855 -0.6838030 -1.2446350
v 0.0788855 -0.6838030 -1.2446350
vn 0.0000000 -0.0000035 1.0000000
vn 0.0000000 -0.0000035 1.0000000
vn 0.0000000 -0.0000035 1.0000000
vn 0.0000000 0.0000000 -1.0000000
vn 0.0000000 0.0000000 -1.0000000
vn 0.0000000 0.0000000 -1.0000000
vn -0.1819040 0.1070734 0.9774693
vn 0.9661537 -0.0568133 -0.2516333
vn 0.0000000 -0.9987077 0.0508217
vn 0.0253022 -0.9983880 0.0508054
vn 0.0000000 -0.9987077 0.0508217
vn 0.0000000 1.0000000 0.0000000
vn 0.0000000 1.0000000 0.0000000
vn 0.0000000 1.0000000 0.0000000
vn 0.0000000 -0.0000005 -1.0000000
vn 0.0000000 -0.0000005 -1.0000000
vn 0.0000000 -0.0000005 -1.0000000
vn 1.0000000 0.0000000 0.0000000
vn 0.0000000 0.0000005 1.0000000
vn 0.0000000 0.0000005 1.0000000
vn 0.0000000 0.0000005 1.0000000
vn -0.2424465 -0.9626608 -0.1204318
vn 0.0000000 1.0000000 0.0000010
vn 0.0000000 1.0000000 0.0000010
vn 0.0000000 1.0000000 0.0000010
vn 1.0000000 0.0000000 0.0000000
vn 0.0000000 -1.0000000 -0.0000010
vn 0.0000000 -1.0000000 -0.0000010
vn 0.0000000 -1.0000000 -0.0000010
vn 0.0317813 -0.0656254 -0.9973381
vn -0.3353039 0.9404169 -0.0564566
vn -0.1016974 0.0127223 0.9947340
vn -0.6007214 -0.7973925 -0.0574360
vn -0.0135110 -0.0216889 -0.9996735
vn -0.0000006 1.0000000 0.0000000
vn 0.0000000 0.0000000 -1.0000000
vn 0.0000000 -1.0000000 -0.0000001
vn 0.0000000 0.0000000 1.0000000
vn 0.0000000 0.0000008 1.0000000
vn 0.0000000 0.0000008 1.0000000
vn 0.0000000 0.0000008 1.0000000
vn 1.0000000 -0.0000009 -0.0000001
vn -0.0106221 -0.0000008 -0.9999436
vn 0.0000000 -0.0000008 -1.0000000
vn 0.0000000 -0.0000008 -1.0000000
vn -0.7320097 0.6812270 -0.0095707
vn 0.0000000 -1.0000000 0.0000017
vn 0.0000000 -1.0000000 0.0000017
vn 0.0000000 -1.0000000 0.0000017
vn 1.0000000 0.0000000 0.0000000
vn -0.0000001 1.0000000 -0.0000023
vn 0.0000000 1.0000000 -0.0000023
vn 0.0000000 1.0000000 -0.0000023
vn 0.0000002 1.0000000 0.0000000
vn 0.0000000 1.0000000 0.0000000
vn 0.0000000 1.0000000 0.0000000
vn 0.0000000 0.4704488 0.8824273
vn 0.0000001 0.4704488 0.8824273
vn 0.0000000 0.4704488 0.8824273
vn 0.4637088 -0.0010316 0.8859870
vn 0.0000001 -0.4284506 0.9035652
vn 0.0000000 -0.4284506 0.9035652
vn 0.0000000 -0.4284506 0.9035652
vn -1.0000000 0.0000000 0.0000000
vn 0.0000000 -0.4711120 -0.8820734
vn 0.0000000 -0.4711120 -0.8820734
vn 0.0000000 -0.4711120 -0.8820734
vn 0.5033374 0.0000002 -0.8640900
vn -0.0000001 0.5281398 -0.8491575
vn 0.0000000 0.5281398 -0.8491575
vn 0.0000000 0.5281398 -0.8491575
vn 0.0000000 -1.0000000 0.0000000
vn 0.0000000 -1.0000000 0.0000000
vn 0.0000000 -1.0000000 0.0000000
vn 0.0000000 -1.0000000 0.0000000
vn 1.0000000 0.0000000 0.0000000
vn -0.0000002 1.0000000 0.0000000
vn 0.0000001 0.5281398 -0.8491575
vn -0.5033374 0.0000002 -0.8640900
vn 0.0000000 -0.4711120 -0.8820734
vn -0.0000001 -0.4284506 0.9035652
vn -0.4637088 -0.0010316 0.8859871
vn 0.7320097 0.6812270 -0.0095707
vn 0.0135110 -0.0216889 -0.9996735
vn 0.6007214 -0.7973925 -0.0574360
vn 0.1016974 0.0127223 0.9947340
vn 0.3353039 0.9404169 -0.0564566
vn -0.0317813 -0.0656254 -0.9973381
vn 0.2424465 -0.9626608 -0.1204318
vn 0.1819040 0.1070734 0.9774693
vn 0.0000000 -0.0000035 1.0000000
vn 0.0000000 0.0000000 -1.0000000
vn -0.9661537 -0.0568133 -0.2516333
vn -0.0253022 -0.9983880 0.0508054
vn 0.0000000 1.0000000 0.0000000
vn 0.0000000 -0.0000005 -1.0000000
vn -1.0000000 0.0000000 0.0000000
vn 0.0000000 0.0000005 1.0000000
vn 0.0000000 1.0000000 0.0000010
vn -1.0000000 0.0000000 0.0000000
vn 0.0000000 -1.0000000 -0.0000010
vn 0.0000006 1.0000000 0.0000000
vn 0.0000000 0.0000000 -1.0000000
vn 0.0000000 -1.0000000 -0.0000001
vn 0.0000000 0.0000000 1.0000000
vn 0.0000000 0.0000008 1.0000000
vn -1.0000000 -0.0000009 -0.0000001
vn 0.0106221 -0.0000008 -0.9999436
vn 0.0000000 -1.0000000 0.0000017
vn -1.0000000 0.0000000 0.0000000
vn 0.0000001 1.0000000 -0.0000023
vn -0.0000001 0.4704488 0.8824273
vn 0.0274669 -0.8742105 0.4847696
vn 0.4846611 -0.8746732 0.0070863
vn -0.0533407 -0.8351166 -0.5474806
vn 0.0622051 -0.7671332 -0.6384647
vn -0.4585578 -0.8886365 0.0070658
vn -0.0307744 -0.8390760 0.5431430
vn -1.0000000 0.0000461 -0.0000002
vn 0.4256155 0.8748007 0.2314630
vn 0.9998918 0.0136384 -0.0055242
vn 0.1058627 -0.0000054 -0.9943808
vn 1.0000000 0.0000459 -0.0000002
vn -0.4871704 0.8098094 -0.3269154
vn -0.9996347 0.0264112 -0.0057259
vn 0.1030351 0.0000054 0.9946777
o Cube
g Cube
f 36//3 35//2 34//2 33//1
f 44//6 43//5 42//5 41//4
f 17//7 23//7 64//7 61//7
f 56//8 55//8 54//8 53//8
f 84//11 82//10 80//10 79//9
f 12//14 11//13 10//13 9//12
f 9//17 10//16 8//16 7//15
f 10//18 11//18 4//18 8//18
f 11//19 12//21 3//20 4//19
f 19//22 17//22 61//22 62//22
f 13//25 14//24 4//24 3//23
f 14//26 15//26 2//26 4//26
f 15//27 16//29 1//28 2//27
f 21//30 19//30 62//30 63//30
f 23//31 21//31 63//31 64//31
f 78//32 74//32 23//32 17//32
f 76//33 78//33 17//33 19//33
f 75//34 76//34 19//34 21//34
f 24//35 22//35 8//35 4//35
f 22//36 20//36 6//36 8//36
f 20//37 18//37 2//37 6//37
f 18//38 24//38 4//38 2//38
f 25//41 26//40 2//40 1//39
f 26//42 27//42 6//42 2//42
f 27//43 28//45 5//44 6//43
f 74//46 75//46 21//46 23//46
f 29//49 30//48 6//48 5//47
f 30//50 31//50 8//50 6//50
f 31//51 32//53 7//52 8//51
f 45//54 40//56 44//55 59//54
f 33//59 34//58 14//58 13//57
f 34//60 35//60 15//60 14//60
f 35//61 36//63 16//62 15//61
f 46//64 45//64 59//64 60//64
f 37//67 38//66 30//66 29//65
f 38//68 39//68 31//68 30//68
f 39//69 40//71 32//70 31//69
f 37//74 46//73 60//73 41//72
f 41//72 42//75 38//75 37//74
f 42//76 43//76 39//76 38//76
f 43//77 44//55 40//56 39//77
f 47//78 32//70 40//71 45//78
f 48//79 47//79 45//79 46//79
f 29//65 48//80 46//80 37//67
f 72//81 16//62 36//63 57//81
f 71//82 72//82 57//82 58//82
f 49//83 50//83 22//83 24//83
f 50//84 51//84 20//84 22//84
f 51//85 52//85 18//85 20//85
f 52//86 49//86 24//86 18//86
f 53//87 54//87 50//87 49//87
f 54//88 55//88 51//88 50//88
f 55//89 56//89 52//89 51//89
f 56//90 53//90 49//90 52//90
f 33//1 58//91 57//91 36//3
f 41//4 60//92 59//92 44//6
f 64//93 63//93 62//93 61//93
f 79//9 81//94 83//94 84//11
f 9//12 68//95 67//95 12//14
f 7//15 69//96 68//96 9//17
f 69//97 70//97 67//97 68//97
f 70//98 3//20 12//21 67//98
f 3//23 70//99 71//99 13//25
f 70//100 73//100 72//100 71//100
f 73//101 1//28 16//29 72//101
f 70//102 69//102 75//102 74//102
f 69//103 77//103 76//103 75//103
f 77//104 73//104 78//104 76//104
f 73//105 70//105 74//105 78//105
f 1//39 73//106 66//106 25//41
f 73//107 77//107 65//107 66//107
f 77//108 5//44 28//45 65//108
f 5//47 77//109 48//109 29//49
f 77//110 69//110 47//110 48//110
f 69//111 7//52 32//53 47//111
f 13//57 71//112 58//112 33//59
f 79//113 80//113 26//113 25//113
f 90//114 92//114 86//114 88//114
f 82//115 84//115 28//115 27//115
f 84//116 83//116 65//116 28//116
f 91//117 89//117 87//117 85//117
f 81//118 79//118 25//118 66//118
f 85//119 87//119 66//119 65//119
f 87//120 89//120 81//120 66//120
f 89//121 91//121 83//121 81//121
f 91//122 85//122 65//122 83//122
f 88//123 86//123 27//123 26//123
f 86//124 92//124 82//124 27//124
f 92//125 90//125 80//125 82//125
f 90//126 88//126 26//126 80//126
 
